<svg xmlns="http://www.w3.org/2000/svg" width="900" height="290" style="font-family: -apple-system, BlinkMacSystemFont, 'Segoe UI', Helvetica, Arial, sans-serif;">
  <rect width="100%" height="100%" fill="white"/>
  <g>
    <line x1="40" y1="220.00" x2="860" y2="220.00" stroke="#e5e7eb"/><text x="32" y="224.00" font-size="10" fill="#111827" text-anchor="end">0</text><line x1="40" y1="175.00" x2="860" y2="175.00" stroke="#e5e7eb"/><text x="32" y="179.00" font-size="10" fill="#111827" text-anchor="end">500</text><line x1="40" y1="130.00" x2="860" y2="130.00" stroke="#e5e7eb"/><text x="32" y="134.00" font-size="10" fill="#111827" text-anchor="end">1k</text><line x1="40" y1="85.00" x2="860" y2="85.00" stroke="#e5e7eb"/><text x="32" y="89.00" font-size="10" fill="#111827" text-anchor="end">1.5k</text><line x1="40" y1="40.00" x2="860" y2="40.00" stroke="#e5e7eb"/><text x="32" y="44.00" font-size="10" fill="#111827" text-anchor="end">2k</text>
    <line x1="40.00" y1="40" x2="40.00" y2="220" stroke="#e5e7eb" opacity="0.5"/><line x1="124.10" y1="40" x2="124.10" y2="220" stroke="#e5e7eb" opacity="0.5"/><line x1="208.21" y1="40" x2="208.21" y2="220" stroke="#e5e7eb" opacity="0.5"/><line x1="292.31" y1="40" x2="292.31" y2="220" stroke="#e5e7eb" opacity="0.5"/><line x1="376.41" y1="40" x2="376.41" y2="220" stroke="#e5e7eb" opacity="0.5"/><line x1="460.51" y1="40" x2="460.51" y2="220" stroke="#e5e7eb" opacity="0.5"/><line x1="544.62" y1="40" x2="544.62" y2="220" stroke="#e5e7eb" opacity="0.5"/><line x1="628.72" y1="40" x2="628.72" y2="220" stroke="#e5e7eb" opacity="0.5"/><line x1="712.82" y1="40" x2="712.82" y2="220" stroke="#e5e7eb" opacity="0.5"/><line x1="796.92" y1="40" x2="796.92" y2="220" stroke="#e5e7eb" opacity="0.5"/>
    <line x1="40" y1="220" x2="860" y2="220" stroke="#9ca3af"/>
    <line x1="40" y1="40"   x2="40"   y2="220" stroke="#9ca3af"/>
    <path d="M 40.00 128.92 L 61.03 121.45 L 82.05 121.18 L 103.08 116.41 L 124.10 116.41 L 145.13 107.14 L 166.15 104.26 L 187.18 97.96 L 208.21 96.16 L 229.23 95.71 L 250.26 95.71 L 271.28 91.30 L 292.31 89.50 L 313.33 86.26 L 334.36 85.54 L 355.38 85.63 L 376.41 81.94 L 397.44 81.22 L 418.46 81.22 L 439.49 81.22 L 460.51 81.22 L 481.54 80.68 L 502.56 64.12 L 523.59 63.76 L 544.62 63.49 L 565.64 63.22 L 586.67 62.95 L 607.69 62.95 L 628.72 66.19 L 649.74 66.37 L 670.77 63.85 L 691.79 63.85 L 712.82 58.81 L 733.85 58.81 L 754.87 58.90 L 775.90 58.90 L 796.92 58.90 L 817.95 58.90 L 838.97 58.90 L 860.00 59.26" fill="none" stroke="#111827" stroke-width="2"/>
    <circle cx="860.00" cy="59.26" r="3" fill="#111827"/>
    <text x="40.00" y="235.00" font-size="9" fill="#111827" text-anchor="middle" transform="rotate(-45 40.00 235.00)">13.09.2026</text><text x="124.10" y="235.00" font-size="9" fill="#111827" text-anchor="middle" transform="rotate(-45 124.10 235.00)">13.09.2026</text><text x="208.21" y="235.00" font-size="9" fill="#111827" text-anchor="middle" transform="rotate(-45 208.21 235.00)">13.09.2026</text><text x="292.31" y="235.00" font-size="9" fill="#111827" text-anchor="middle" transform="rotate(-45 292.31 235.00)">13.09.2026</text><text x="376.41" y="235.00" font-size="9" fill="#111827" text-anchor="middle" transform="rotate(-45 376.41 235.00)">14.09.2026</text><text x="460.51" y="235.00" font-size="9" fill="#111827" text-anchor="middle" transform="rotate(-45 460.51 235.00)">15.09.2026</text><text x="544.62" y="235.00" font-size="9" fill="#111827" text-anchor="middle" transform="rotate(-45 544.62 235.00)">16.09.2026</text><text x="628.72" y="235.00" font-size="9" fill="#111827" text-anchor="middle" transform="rotate(-45 628.72 235.00)">18.09.2026</text><text x="712.82" y="235.00" font-size="9" fill="#111827" text-anchor="middle" transform="rotate(-45 712.82 235.00)">22.09.2026</text><text x="796.92" y="235.00" font-size="9" fill="#111827" text-anchor="middle" transform="rotate(-45 796.92 235.00)">23.09.2026</text>
  </g>
</svg>